<svg width="18" height="19" viewBox="0 0 18 19" fill="none" xmlns="http://www.w3.org/2000/svg">
<path d="M13.725 4.91242C13.4325 4.61992 12.96 4.61992 12.6675 4.91242L9.00004 8.57242L5.33254 4.90492C5.04004 4.61242 4.56754 4.61242 4.27504 4.90492C3.98254 5.19742 3.98254 5.66992 4.27504 5.96242L7.94254 9.62992L4.27504 13.2974C3.98254 13.5899 3.98254 14.0624 4.27504 14.3549C4.56754 14.6474 5.04004 14.6474 5.33254 14.3549L9.00004 10.6874L12.6675 14.3549C12.96 14.6474 13.4325 14.6474 13.725 14.3549C14.0175 14.0624 14.0175 13.5899 13.725 13.2974L10.0575 9.62992L13.725 5.96242C14.01 5.67742 14.01 5.19742 13.725 4.91242Z" fill="black" fill-opacity="0.78"/>
</svg>
