<svg width="29" height="27" viewBox="0 0 29 27" fill="none" xmlns="http://www.w3.org/2000/svg">
<g clip-path="url(#clip0_66_3168)">
<path d="M29 13.5C29 6.0442 22.5081 0 14.5 0C6.49192 0 0 6.0441 0 13.5C0 20.2382 5.30247 25.8233 12.2344 26.836V17.4023H8.55273V13.5H12.2344V10.5258C12.2344 7.14234 14.3992 5.27344 17.7112 5.27344C19.2977 5.27344 20.957 5.53711 20.957 5.53711V8.85938H19.1287C17.3273 8.85938 16.7656 9.90003 16.7656 10.9677V13.5H20.7871L20.1442 17.4023H16.7656V26.836C23.6975 25.8233 29 20.2383 29 13.5Z" fill="#1877F2"/>
<path d="M20.1442 17.4023L20.7871 13.5H16.7656V10.9677C16.7656 9.89993 17.3274 8.85938 19.1287 8.85938H20.957V5.53711C20.957 5.53711 19.2977 5.27344 17.7112 5.27344C14.3992 5.27344 12.2344 7.14234 12.2344 10.5258V13.5H8.55273V17.4023H12.2344V26.836C12.9839 26.9454 13.7414 27.0002 14.5 27C15.2586 27.0002 16.0161 26.9454 16.7656 26.836V17.4023H20.1442Z" fill="white"/>
</g>
<defs>
<clipPath id="clip0_66_3168">
<rect width="29" height="27" fill="white"/>
</clipPath>
</defs>
</svg>
