<svg width="20" height="16" viewBox="0 0 20 16" fill="none" xmlns="http://www.w3.org/2000/svg">
<path d="M20 8V14C20 15.1 19.1 16 18 16H2C0.9 16 0 15.1 0 14V2C0 0.9 0.9 0 2 0H12V2H2V14H18V8H20ZM20 3C20 1.34 18.66 0 17 0C15.34 0 14 1.34 14 3C14 4.66 15.34 6 17 6C18.66 6 20 4.66 20 3ZM7.34 11.66C7.73 12.05 8.36 12.05 8.75 11.66L10.87 9.54L12.14 10.81C12.46 11.12 13 10.9 13 10.45V6.5C13 6.22 12.78 6 12.5 6H8.55C8.1 6 7.88 6.54 8.2 6.85L9.47 8.12L7.35 10.24C6.95 10.63 6.95 11.27 7.34 11.66Z" fill="#FDD04C"/>
</svg>
