<svg width="72" height="23" viewBox="0 0 72 23" fill="none" xmlns="http://www.w3.org/2000/svg">
<g clip-path="url(#clip0_66_3164)">
<path d="M3.81473 0.635485C2.34562 1.29488 0.730827 3.15539 0.22078 5.49251C-0.425251 8.45272 2.26265 9.70491 2.4833 9.2949C2.74275 8.81255 2.00165 8.64951 1.84908 7.11343C1.65192 5.12951 2.51269 2.91279 3.59606 1.94012C3.79715 1.75929 3.78773 2.01094 3.78773 2.4761C3.78773 3.30803 3.74484 10.7766 3.74484 12.3353C3.74484 14.4443 3.66356 15.1103 3.51745 15.7685C3.36965 16.4353 3.13172 16.886 3.31186 17.0595C3.51323 17.2536 4.37301 16.7918 4.87069 16.0475C5.4675 15.1549 5.67647 14.0826 5.71401 12.9186C5.75929 11.5151 5.75733 9.28796 5.7593 8.01769C5.76098 6.85275 5.77758 3.44139 5.74017 1.39057C5.73103 0.88728 4.42912 0.359581 3.81473 0.635485ZM55.9786 10.5058C55.9312 11.6023 55.7046 12.4593 55.4235 13.0638C54.8793 14.2342 53.7501 14.5975 53.2706 12.9153C53.0093 11.9982 52.9971 10.4666 53.1848 9.18685C53.376 7.88328 53.9101 6.8987 54.7942 6.98746C55.6664 7.07531 56.0746 8.27943 55.9786 10.5059V10.5058ZM41.2762 17.3086C41.2644 19.1304 40.9968 20.7277 40.4231 21.1918C39.6091 21.8497 38.5152 21.356 38.7418 20.0267C38.9422 18.8503 39.8901 17.6489 41.2786 16.1809C41.2786 16.1809 41.2814 16.5157 41.2762 17.3086ZM41.0541 10.4951C41.0043 11.4938 40.7627 12.497 40.499 13.0638C39.9548 14.2342 38.8174 14.6001 38.346 12.9153C38.0237 11.764 38.1009 10.2743 38.2603 9.33558C38.4673 8.11759 38.969 6.98761 39.8697 6.98761C40.7455 6.98761 41.1775 8.01724 41.0541 10.4951ZM32.5371 10.48C32.4837 11.5375 32.2912 12.4216 31.9822 13.0638C31.4231 14.2262 30.3169 14.5948 29.8292 12.9153C29.4775 11.7042 29.5972 10.053 29.7434 9.16094C29.9606 7.83717 30.5042 6.8987 31.3529 6.98761C32.2246 7.07892 32.6483 8.27943 32.5371 10.48ZM71.568 11.7153C71.3549 11.7153 71.2576 11.9507 71.1771 12.3467C70.8982 13.7246 70.6047 14.0354 70.2266 14.0354C69.804 14.0354 69.4243 13.3534 69.3266 11.9879C69.2499 10.9142 69.2623 8.93747 69.3603 6.97118C69.3804 6.5672 69.2764 6.16743 68.2651 5.77384C67.83 5.60447 67.1975 5.35509 66.8825 6.16969C65.9928 8.47125 65.6446 10.2985 65.5626 11.0404C65.5584 11.0789 65.5144 11.0868 65.5068 10.997C65.4545 10.4026 65.3379 9.32217 65.3233 7.05255C65.3204 6.60969 65.233 6.23283 64.7768 5.92422C64.4808 5.72381 63.582 5.3697 63.2585 5.79117C62.9781 6.13564 62.6532 7.06295 62.3158 8.16235C62.0416 9.05591 61.8507 9.66016 61.8507 9.66016C61.8507 9.66016 61.8543 7.2495 61.8576 6.33499C61.859 5.99007 61.6382 5.8751 61.5715 5.85431C61.272 5.76118 60.6814 5.60553 60.4308 5.60553C60.1214 5.60553 60.0457 5.79057 60.0457 6.06059C60.0457 6.09601 59.9969 9.23447 59.9969 11.429C59.9969 11.5244 59.9969 11.6284 59.9974 11.739C59.8264 12.7477 59.2716 14.1168 58.6683 14.1168C58.0642 14.1168 57.7793 13.5445 57.7793 10.9282C57.7793 9.40188 57.822 8.73812 57.843 7.6342C57.8552 6.99831 57.8788 6.51009 57.8774 6.39933C57.8729 6.05954 57.3248 5.88821 57.0696 5.82492C56.8132 5.76118 56.5904 5.73632 56.4165 5.74702C56.1703 5.76209 55.996 5.93492 55.996 6.17301C55.996 6.30079 55.9974 6.54339 55.9974 6.54339C55.6803 6.00936 55.1703 5.63777 54.8309 5.53003C53.9169 5.23921 52.9632 5.49688 52.2437 6.57564C51.6719 7.43258 51.3273 8.40344 51.1916 9.79803C51.0924 10.8177 51.1248 11.8516 51.3011 12.726C51.0881 13.7127 50.6928 14.1168 50.2598 14.1168C49.6312 14.1168 49.1756 13.0177 49.2284 11.1164C49.2633 9.86584 49.4969 8.98825 49.7521 7.71858C49.861 7.17732 49.7725 6.89403 49.5508 6.6225C49.3473 6.37342 48.9137 6.24609 48.2908 6.4025C47.8469 6.51416 47.2123 6.63425 46.6317 6.72647C46.6317 6.72647 46.6668 6.57654 46.6955 6.31254C46.8465 4.92775 45.4421 5.04001 44.9939 5.48227C44.7266 5.74642 44.5445 6.05788 44.4755 6.61783C44.3658 7.50657 45.0422 7.92577 45.0422 7.92577C44.8204 9.01432 44.2763 10.4362 43.7147 11.4643C43.4139 12.0151 43.1838 12.4233 42.8867 12.8571C42.877 11.1161 42.8876 9.37505 42.9185 7.63435C42.9307 6.99846 42.9545 6.5232 42.9532 6.41229C42.9498 6.16396 42.8144 6.06994 42.5327 5.9512C42.2835 5.84602 41.9891 5.77339 41.6835 5.74777C41.2979 5.71583 41.0656 5.93477 41.0718 6.19395C41.0729 6.24292 41.0729 6.54339 41.0729 6.54339C40.7558 6.00936 40.2457 5.63777 39.9064 5.53003C38.9924 5.23921 38.0386 5.49688 37.3192 6.57564C36.7476 7.43258 36.3732 8.63535 36.267 9.78749C36.1683 10.8611 36.1865 11.7735 36.3212 12.5423C36.1759 13.312 35.758 14.117 35.2856 14.117C34.6815 14.117 34.3378 13.5445 34.3378 10.9282C34.3378 9.40188 34.3806 8.73812 34.4017 7.6342C34.4139 6.99846 34.4374 6.51009 34.4361 6.39933C34.4316 6.05954 33.8833 5.88836 33.6281 5.82492C33.3612 5.75862 33.1307 5.73451 32.9536 5.74853C32.7202 5.76706 32.556 5.99113 32.556 6.15824V6.54339C32.2388 6.00936 31.7288 5.63777 31.3895 5.53003C30.4754 5.23921 29.527 5.5011 28.8022 6.57564C28.3297 7.27617 27.9471 8.0528 27.7502 9.77211C27.6933 10.2689 27.6681 10.7344 27.6715 11.1691C27.483 12.4041 26.6505 13.8275 25.9698 13.8275C25.5714 13.8275 25.1918 12.9993 25.1918 11.2347C25.1918 8.88398 25.3277 5.53696 25.3507 5.2145C25.3507 5.2145 26.2109 5.19883 26.3774 5.19672C26.8066 5.19159 27.1952 5.20259 27.7668 5.1711C28.0534 5.15558 28.3296 4.05302 28.0337 3.91665C27.8996 3.85487 26.9519 3.80092 26.5762 3.79233C26.2603 3.7848 25.3808 3.71488 25.3808 3.71488C25.3808 3.71488 25.4597 1.49333 25.4782 1.25872C25.4936 1.06298 25.2574 0.962321 25.1221 0.901293C24.7927 0.752115 24.4981 0.68054 24.149 0.603389C23.6663 0.496704 23.4475 0.601129 23.4048 1.03736C23.3404 1.69962 23.307 3.63939 23.307 3.63939C22.9529 3.63939 21.7433 3.56525 21.3892 3.56525C21.0601 3.56525 20.7049 5.08175 21.16 5.10043C21.6834 5.12213 22.5956 5.14111 23.2003 5.1604C23.2003 5.1604 23.1733 8.56257 23.1733 9.61314C23.1733 9.72465 23.1739 9.83239 23.1744 9.93681C22.8416 11.7955 21.6693 12.7997 21.6693 12.7997C21.921 11.5699 21.4068 10.6464 20.4805 9.86464C20.1392 9.57668 19.4655 9.03135 18.7117 8.43373C18.7117 8.43373 19.1482 7.97264 19.5355 7.04502C19.8097 6.38773 19.8217 5.63596 19.1482 5.47006C18.0356 5.19581 17.1183 6.07144 16.8446 7.00629C16.6326 7.73048 16.7456 8.26768 17.161 8.82581C17.1913 8.86665 17.2243 8.90839 17.2581 8.95028C17.007 9.46894 16.6619 10.1674 16.3697 10.7089C15.5586 12.2128 14.9459 13.402 14.4828 13.402C14.1127 13.402 14.1176 12.1944 14.1176 11.0638C14.1176 10.0892 14.1848 8.62374 14.2386 7.1068C14.2563 6.60502 14.022 6.31917 13.6297 6.06029C13.3912 5.90298 12.8822 5.59377 12.5875 5.59377C12.1462 5.59377 10.8733 5.65811 9.67064 9.38606C9.51904 9.8559 9.2212 10.7121 9.2212 10.7121L9.24693 6.22906C9.24693 6.12388 9.19462 6.02232 9.07495 5.95285C8.87231 5.83487 8.33105 5.59377 7.84969 5.59377C7.62047 5.59377 7.50586 5.70799 7.50586 5.93583L7.46395 12.9496C7.46395 13.4826 7.47689 14.1043 7.52611 14.3761C7.57505 14.6483 7.6545 14.8698 7.75265 15.0015C7.85095 15.133 7.96444 15.2335 8.15161 15.2748C8.32584 15.3133 9.27984 15.4445 9.32948 15.0539C9.38883 14.5856 9.39122 14.0793 9.89212 12.1906C10.672 9.25014 11.6887 7.81562 12.1669 7.30601C12.2505 7.2171 12.3459 7.21168 12.3412 7.35739C12.321 8.00202 12.2491 9.61314 12.2009 10.9814C12.0714 14.6438 12.6931 15.3226 13.5817 15.3226C14.2615 15.3226 15.2197 14.5989 16.2468 12.7668C16.8191 11.7459 17.3888 10.7232 17.9558 9.69888C18.267 10.0076 18.6165 10.3399 18.9655 10.6949C19.7769 11.5201 20.0433 12.3042 19.8665 13.048C19.7315 13.6165 19.2223 14.2026 18.3163 13.6331C18.0522 13.4669 17.9394 13.3384 17.6739 13.1511C17.5313 13.0506 17.3135 13.0204 17.1828 13.1259C16.8436 13.3999 16.6496 13.7485 16.5388 14.1801C16.431 14.6001 16.8235 14.822 17.2305 15.0163C17.5808 15.1834 18.3338 15.3348 18.8139 15.352C20.6849 15.419 22.1839 14.384 23.2273 11.714C23.4141 14.0199 24.2089 15.3247 25.59 15.3247C26.5133 15.3247 27.439 14.0458 27.8439 12.7878C27.96 13.3006 28.1322 13.7466 28.3544 14.1237C29.4185 15.9305 31.4828 15.5417 32.5198 14.0074C32.8404 13.5334 32.8892 13.3631 32.8892 13.3631C33.0405 14.8116 34.1293 15.3178 34.7525 15.3178C35.4507 15.3178 36.1714 14.9641 36.6767 13.7454C36.7359 13.8777 36.8006 14.0041 36.8712 14.1237C37.9353 15.9305 39.9998 15.5417 41.0368 14.0074C41.0857 13.9354 41.1282 13.8703 41.1651 13.8115L41.1955 14.7631L40.2408 15.7014C38.6405 17.2731 37.4249 18.465 37.3355 19.8532C37.2216 21.6233 38.5606 22.2812 39.5751 22.3674C40.6505 22.4589 41.5731 21.8218 42.1393 20.9302C42.6376 20.1453 42.9639 18.4561 42.9398 16.7879C42.9304 16.1197 42.9145 15.2703 42.9023 14.3597C43.4641 13.6607 44.097 12.7771 44.6798 11.7431C45.3148 10.6161 45.9955 9.10262 46.3439 7.92472C46.3439 7.92472 46.9353 7.93029 47.5664 7.88599C47.7682 7.87183 47.8263 7.91613 47.7889 8.0745C47.7439 8.26617 46.9915 11.3753 47.6782 13.4464C48.148 14.8644 49.2074 15.3203 49.8354 15.3203C50.5707 15.3203 51.274 14.7254 51.6509 13.8421C51.6964 13.9405 51.7438 14.0357 51.7957 14.1239C52.8598 15.9306 54.917 15.5393 55.9613 14.0074C56.197 13.6617 56.3307 13.3631 56.3307 13.3631C56.5547 14.8624 57.6429 15.3255 58.2661 15.3255C58.9153 15.3255 59.5315 15.0402 60.0313 13.7728C60.0523 14.3309 60.0851 14.7872 60.137 14.931C60.1686 15.0191 60.3531 15.1294 60.4873 15.1828C61.0813 15.4187 61.6868 15.3072 61.911 15.2587C62.0662 15.2249 62.1873 15.0914 62.2039 14.747C62.2475 13.8421 62.2208 12.3219 62.4767 11.1919C62.9063 9.2958 63.3073 8.56031 63.4974 8.19625C63.6038 7.99207 63.7238 7.95847 63.7281 8.1744C63.7371 8.61139 63.7574 9.89417 63.9239 11.618C64.0462 12.8856 64.2094 13.6349 64.3349 13.8723C64.6933 14.5503 65.1355 14.5824 65.4958 14.5824C65.725 14.5824 66.2043 14.5146 66.1614 14.0831C66.1404 13.8727 66.177 12.5726 66.6007 10.7046C66.8773 9.48461 67.3386 8.3825 67.5049 7.97942C67.5664 7.83084 67.5949 7.94792 67.5938 7.97083C67.5588 8.8109 67.4802 11.5588 67.7995 13.0617C68.2326 15.0976 69.4851 15.3255 69.9216 15.3255C70.8533 15.3255 71.6154 14.566 71.872 12.5676C71.9339 12.0866 71.8424 11.7153 71.568 11.7153Z" fill="#FAFAFA"/>
</g>
<defs>
<clipPath id="clip0_66_3164">
<rect width="72" height="22" fill="white" transform="translate(0 0.5)"/>
</clipPath>
</defs>
</svg>
