<svg width="26" height="29" viewBox="0 0 26 29" fill="none" xmlns="http://www.w3.org/2000/svg">
<path d="M7.52213 0.944194C6.28228 0.942417 5.06744 1.34667 4.0187 2.11C2.96995 2.87332 2.13035 3.9644 1.5974 5.25651C1.06445 6.54862 0.860033 7.98873 1.00788 9.40958C1.15573 10.8304 1.64978 12.1737 2.43265 13.2834V13.2834L12.9418 27.521L23.3474 13.4254L23.3992 13.3581L23.451 13.2834C24.0194 12.4923 24.4422 11.576 24.6938 10.5902C24.9454 9.60446 25.0205 8.56989 24.9145 7.54954C24.8085 6.52919 24.5236 5.54443 24.0773 4.65525C23.6309 3.76607 23.0324 2.99108 22.3182 2.3775C21.6039 1.76391 20.789 1.32459 19.9229 1.08627C19.0568 0.847957 18.1578 0.815648 17.2805 0.991313C16.4033 1.16698 15.5662 1.54694 14.8203 2.10805C14.0744 2.66916 13.4353 3.39967 12.9418 4.25508C12.3423 3.23502 11.5355 2.39993 10.5919 1.82278C9.64825 1.24563 8.59653 0.943986 7.52861 0.944194H7.52213Z" fill="#A39DAC" fill-opacity="0.37" stroke="#FBFAFA" stroke-opacity="0.92" stroke-linecap="round" stroke-linejoin="round"/>
</svg>
