<svg width="17" height="20" viewBox="0 0 17 20" fill="none" xmlns="http://www.w3.org/2000/svg">
<path d="M8.96112 0.161133C4.76112 0.161133 0.961121 3.38113 0.961121 8.36113C0.961121 11.5411 3.41112 15.2811 8.30112 19.5911C8.68112 19.9211 9.25112 19.9211 9.63112 19.5911C14.5111 15.2811 16.9611 11.5411 16.9611 8.36113C16.9611 3.38113 13.1611 0.161133 8.96112 0.161133ZM8.96112 10.1611C7.86112 10.1611 6.96112 9.26113 6.96112 8.16113C6.96112 7.06113 7.86112 6.16113 8.96112 6.16113C10.0611 6.16113 10.9611 7.06113 10.9611 8.16113C10.9611 9.26113 10.0611 10.1611 8.96112 10.1611Z" fill="#BFBFBF" fill-opacity="0.49"/>
</svg>
