<svg width="15" height="20" viewBox="0 0 15 20" fill="none" xmlns="http://www.w3.org/2000/svg">
<path d="M7.46112 14.1611C8.63473 14.1611 9.58612 12.7476 9.58612 11.0038C9.58612 9.26011 8.63473 7.84653 7.46112 7.84653C6.28752 7.84653 5.33612 9.26011 5.33612 11.0038C5.33612 12.7476 6.28752 14.1611 7.46112 14.1611Z" fill="#E7ECF6"/>
<path d="M13.1278 2.58436H10.8824L10.004 1.16357C9.74195 0.732077 9.35945 0.479492 8.96279 0.479492H5.95945C5.56279 0.479492 5.18029 0.732077 4.91112 1.16357L4.03987 2.58436H1.79445C1.01529 2.58436 0.377788 3.53155 0.377788 4.68923V17.3184C0.377788 18.4761 1.01529 19.4233 1.79445 19.4233H13.1278C13.907 19.4233 14.5445 18.4761 14.5445 17.3184V4.68923C14.5445 3.53155 13.907 2.58436 13.1278 2.58436ZM7.46112 16.266C5.50612 16.266 3.91945 13.9086 3.91945 11.0038C3.91945 8.09912 5.50612 5.74166 7.46112 5.74166C9.41612 5.74166 11.0028 8.09912 11.0028 11.0038C11.0028 13.9086 9.41612 16.266 7.46112 16.266Z" fill="#E7ECF6"/>
</svg>
