<svg width="29" height="29" viewBox="0 0 29 29" fill="none" xmlns="http://www.w3.org/2000/svg">
<g clip-path="url(#clip0_66_3171)">
<path d="M14.5 0C10.6552 0 6.96453 1.52862 4.24805 4.24691C1.52876 6.96629 0.000753252 10.6543 0 14.5C0 18.3441 1.5293 22.0348 4.24805 24.7531C6.96453 27.4714 10.6552 29 14.5 29C18.3448 29 22.0355 27.4714 24.752 24.7531C27.4707 22.0348 29 18.3441 29 14.5C29 10.6559 27.4707 6.96521 24.752 4.24691C22.0355 1.52862 18.3448 0 14.5 0Z" fill="url(#paint0_linear_66_3171)"/>
<path d="M6.56352 14.3466C10.7912 12.5051 13.6096 11.2909 15.0188 10.7043C19.0471 9.02936 19.8831 8.73846 20.4291 8.7286C20.5492 8.72668 20.8166 8.75636 20.991 8.89739C21.136 9.01634 21.1768 9.1772 21.1972 9.29014C21.2153 9.40296 21.2402 9.66011 21.2198 9.86085C21.0023 12.1537 20.0576 17.7176 19.5773 20.2857C19.3756 21.3723 18.9746 21.7366 18.5872 21.7721C17.7444 21.8496 17.1055 21.2157 16.2898 20.6812C15.0143 19.8445 14.2938 19.3239 13.0545 18.5076C11.6227 17.5642 12.5516 17.0456 13.3672 16.1983C13.5802 15.9764 17.2913 12.6018 17.3615 12.2957C17.3705 12.2574 17.3796 12.1147 17.2935 12.0395C17.2097 11.964 17.0851 11.9899 16.9945 12.0102C16.8653 12.0392 14.8285 13.3868 10.8773 16.0528C10.2995 16.4502 9.77617 16.6439 9.30492 16.6337C8.78836 16.6226 7.79149 16.341 7.05063 16.1004C6.14438 15.8052 5.42164 15.6491 5.48508 15.1477C5.5168 14.8867 5.87703 14.6196 6.56352 14.3466Z" fill="white"/>
</g>
<defs>
<linearGradient id="paint0_linear_66_3171" x1="14.5" y1="0" x2="14.5" y2="29" gradientUnits="userSpaceOnUse">
<stop stop-color="#2AABEE"/>
<stop offset="1" stop-color="#229ED9"/>
</linearGradient>
<clipPath id="clip0_66_3171">
<rect width="29" height="29" fill="white"/>
</clipPath>
</defs>
</svg>
