<svg width="24" height="25" viewBox="0 0 24 25" fill="none" xmlns="http://www.w3.org/2000/svg">
<g clip-path="url(#clip0_66_3166)">
<path d="M24 3.42282C23.1013 3.91049 22.148 4.23059 21.1719 4.37249C22.1887 3.62608 22.9693 2.4441 23.3369 1.0358C22.3704 1.73833 21.3129 2.2333 20.2103 2.49934C19.312 1.32724 18.0324 0.594727 16.6162 0.594727C13.8968 0.594727 11.6921 3.29513 11.6921 6.62573C11.6921 7.0985 11.7357 7.55874 11.8196 8.00028C7.72744 7.74868 4.09931 5.34764 1.67072 1.69873C1.24697 2.58948 1.00416 3.62562 1.00416 4.73076C1.00416 6.82324 1.8735 8.66918 3.19462 9.75078C2.4127 9.72079 1.64798 9.46211 0.964313 8.99633C0.964031 9.0216 0.964031 9.04686 0.964031 9.07224C0.964031 11.9944 2.66128 14.432 4.91372 14.9861C4.18864 15.2277 3.42809 15.263 2.69016 15.0895C3.31669 17.4856 5.13516 19.2292 7.28972 19.278C5.60456 20.8955 3.48141 21.8598 1.17459 21.8598C0.777094 21.8598 0.385219 21.8312 0 21.7755C2.17903 23.4867 4.76719 24.4852 7.54781 24.4852C16.6047 24.4852 21.5573 15.295 21.5573 7.32518C21.5573 7.06359 21.5526 6.80349 21.543 6.54489C22.507 5.69132 23.339 4.63409 24 3.42282Z" fill="#55ACEE"/>
</g>
<defs>
<clipPath id="clip0_66_3166">
<rect width="24" height="24" fill="white" transform="translate(0 0.5)"/>
</clipPath>
</defs>
</svg>
